# xmcd
#
# Track frame offsets:
#	150
#	21343
#	33892
#	52291
#	62611
#	92055
#	111299
#	131251
#	155761
#	165730
#	189270
#
# Disc length: 2727 seconds
#
# Revision: 1
# Processed by: cddbd v1.5.1PL2 Copyright (c) Steve Scherf et al.
# Submitted via: audiograbber 1.82.02
#
DISCID=900aa50b
DTITLE=Intercity Blues Band - No Trains Today
DYEAR=2003
DGENRE=Blues
TTITLE0=You Always Talk Too Much
TTITLE1=Eddy's Upstairs Boogie
TTITLE2=Back To The River
TTITLE3=No Trains Today
TTITLE4=It's A Dog's Life
TTITLE5=Out Of Work Blues
TTITLE6=Big Boss Man
TTITLE7=God Has Smiled On Me
TTITLE8=Big Bang Blues
TTITLE9=I Am The Blues
TTITLE10=Honey Hush
EXTD=
EXTT0=
EXTT1=
EXTT2=
EXTT3=
EXTT4=
EXTT5=
EXTT6=
EXTT7=
EXTT8=
EXTT9=
EXTT10=
PLAYORDER=
